<svg width="1653" height="993" xmlns="http://www.w3.org/2000/svg" xmlns:xlink="http://www.w3.org/1999/xlink" overflow="hidden"><defs><clipPath id="clip0"><rect x="1443" y="532" width="1653" height="993"/></clipPath><clipPath id="clip1"><rect x="1443" y="532" width="1650" height="990"/></clipPath><clipPath id="clip2"><rect x="1443" y="532" width="1650" height="990"/></clipPath><clipPath id="clip3"><rect x="1553" y="731" width="1493" height="584"/></clipPath><clipPath id="clip4"><rect x="1553" y="731" width="1493" height="584"/></clipPath><clipPath id="clip5"><rect x="1443" y="532" width="1650" height="990"/></clipPath><clipPath id="clip6"><rect x="1443" y="532" width="1650" height="990"/></clipPath><clipPath id="clip7"><rect x="1443" y="532" width="1650" height="990"/></clipPath><clipPath id="clip8"><rect x="1443" y="532" width="1650" height="990"/></clipPath><clipPath id="clip9"><rect x="1443" y="532" width="1650" height="990"/></clipPath><clipPath id="clip10"><rect x="1443" y="532" width="1650" height="990"/></clipPath><clipPath id="clip11"><rect x="1443" y="532" width="1650" height="990"/></clipPath><clipPath id="clip12"><rect x="1443" y="532" width="1650" height="990"/></clipPath><clipPath id="clip13"><rect x="1443" y="532" width="1650" height="990"/></clipPath><clipPath id="clip14"><rect x="1443" y="532" width="1650" height="990"/></clipPath><clipPath id="clip15"><rect x="1443" y="532" width="1650" height="990"/></clipPath><clipPath id="clip16"><rect x="1443" y="532" width="1650" height="990"/></clipPath><clipPath id="clip17"><rect x="1443" y="532" width="1650" height="990"/></clipPath><clipPath id="clip18"><rect x="1443" y="532" width="1650" height="990"/></clipPath><clipPath id="clip19"><rect x="1443" y="532" width="1650" height="990"/></clipPath><clipPath id="clip20"><rect x="1443" y="532" width="1650" height="990"/></clipPath><clipPath id="clip21"><rect x="1443" y="532" width="1650" height="990"/></clipPath><clipPath id="clip22"><rect x="1443" y="532" width="1650" height="990"/></clipPath><clipPath id="clip23"><rect x="1443" y="532" width="1650" height="990"/></clipPath><clipPath id="clip24"><rect x="1443" y="532" width="1650" height="990"/></clipPath><clipPath id="clip25"><rect x="1443" y="532" width="1650" height="990"/></clipPath><clipPath id="clip26"><rect x="1443" y="532" width="1650" height="990"/></clipPath><clipPath id="clip27"><rect x="1443" y="532" width="1650" height="990"/></clipPath></defs><g clip-path="url(#clip0)" transform="translate(-1443 -532)"><rect x="1444" y="533" width="1650" height="990" fill="#FFFFFF"/><g clip-path="url(#clip1)"><path d="M1553.5 1247.54 3043.5 1247.54M1553.5 1182.54 3043.5 1182.54M1553.5 1118.54 3043.5 1118.54M1553.5 1053.53 3043.5 1053.53M1553.5 989.533 3043.5 989.533M1553.5 925.531 3043.5 925.531M1553.5 860.528 3043.5 860.528M1553.5 796.526 3043.5 796.526M1553.5 731.5 3043.5 731.5" stroke="#D9D9D9" stroke-width="3.4375" stroke-linejoin="round" stroke-miterlimit="10" fill="none"/></g><g clip-path="url(#clip2)"><path d="M1553.5 1311.5 3043.5 1311.5" stroke="#D9D9D9" stroke-width="3.4375" stroke-linejoin="round" stroke-miterlimit="10" fill="none" fill-rule="evenodd"/></g><g clip-path="url(#clip3)"><path d="M1660 1089.04 1873.06 1031 2086.07 1038.03 2298.08 1047.03 2511.08 1038.03 2724.09 1086.04 2937 1122" stroke="#4472C4" stroke-width="10.3125" stroke-linecap="round" stroke-linejoin="round" stroke-miterlimit="10" fill="none"/></g><g clip-path="url(#clip4)"><path d="M1660 774 1873.06 806.026 2086.07 915.03 2298.08 896.029 2511.08 961 2724.09 909.03 2937 944.031" stroke="#ED7D31" stroke-width="10.3125" stroke-linecap="round" stroke-linejoin="round" stroke-miterlimit="10" fill="none"/></g><g clip-path="url(#clip5)"><text fill="#595959" font-family="Calibri,Calibri_MSFontService,sans-serif" font-weight="400" font-size="41" transform="matrix(1 0 0 1 1494.44 1323)">0</text></g><g clip-path="url(#clip6)"><text fill="#595959" font-family="Calibri,Calibri_MSFontService,sans-serif" font-weight="400" font-size="41" transform="matrix(1 0 0 1 1494.44 1259)">2</text></g><g clip-path="url(#clip7)"><text fill="#595959" font-family="Calibri,Calibri_MSFontService,sans-serif" font-weight="400" font-size="41" transform="matrix(1 0 0 1 1494.44 1194)">4</text></g><g clip-path="url(#clip8)"><text fill="#595959" font-family="Calibri,Calibri_MSFontService,sans-serif" font-weight="400" font-size="41" transform="matrix(1 0 0 1 1494.44 1130)">6</text></g><g clip-path="url(#clip9)"><text fill="#595959" font-family="Calibri,Calibri_MSFontService,sans-serif" font-weight="400" font-size="41" transform="matrix(1 0 0 1 1494.44 1066)">8</text></g><g clip-path="url(#clip10)"><text fill="#595959" font-family="Calibri,Calibri_MSFontService,sans-serif" font-weight="400" font-size="41" transform="matrix(1 0 0 1 1473.54 1001)">10</text></g><g clip-path="url(#clip11)"><text fill="#595959" font-family="Calibri,Calibri_MSFontService,sans-serif" font-weight="400" font-size="41" transform="matrix(1 0 0 1 1473.54 937)">12</text></g><g clip-path="url(#clip12)"><text fill="#595959" font-family="Calibri,Calibri_MSFontService,sans-serif" font-weight="400" font-size="41" transform="matrix(1 0 0 1 1473.54 872)">14</text></g><g clip-path="url(#clip13)"><text fill="#595959" font-family="Calibri,Calibri_MSFontService,sans-serif" font-weight="400" font-size="41" transform="matrix(1 0 0 1 1473.54 808)">16</text></g><g clip-path="url(#clip14)"><text fill="#595959" font-family="Calibri,Calibri_MSFontService,sans-serif" font-weight="400" font-size="41" transform="matrix(1 0 0 1 1473.54 743)">18</text></g><g clip-path="url(#clip15)"><text fill="#595959" font-family="Calibri,Calibri_MSFontService,sans-serif" font-weight="400" font-size="41" transform="matrix(1 0 0 1 1649.57 1377)">2</text></g><g clip-path="url(#clip16)"><text fill="#595959" font-family="Calibri,Calibri_MSFontService,sans-serif" font-weight="400" font-size="41" transform="matrix(1 0 0 1 1862.39 1377)">3</text></g><g clip-path="url(#clip17)"><text fill="#595959" font-family="Calibri,Calibri_MSFontService,sans-serif" font-weight="400" font-size="41" transform="matrix(1 0 0 1 2075.2 1377)">4</text></g><g clip-path="url(#clip18)"><text fill="#595959" font-family="Calibri,Calibri_MSFontService,sans-serif" font-weight="400" font-size="41" transform="matrix(1 0 0 1 2288.02 1377)">5</text></g><g clip-path="url(#clip19)"><text fill="#595959" font-family="Calibri,Calibri_MSFontService,sans-serif" font-weight="400" font-size="41" transform="matrix(1 0 0 1 2500.84 1377)">6</text></g><g clip-path="url(#clip20)"><text fill="#595959" font-family="Calibri,Calibri_MSFontService,sans-serif" font-weight="400" font-size="41" transform="matrix(1 0 0 1 2713.66 1377)">7</text></g><g clip-path="url(#clip21)"><text fill="#595959" font-family="Calibri,Calibri_MSFontService,sans-serif" font-weight="400" font-size="41" transform="matrix(1 0 0 1 2926.47 1377)">8</text></g><g clip-path="url(#clip22)"><text fill="#595959" font-family="Calibri,Calibri_MSFontService,sans-serif" font-weight="400" font-size="64" transform="matrix(1 0 0 1 1969.58 643)">2001/12/2~8</text></g><g clip-path="url(#clip23)"><text fill="#595959" font-family="Yu Gothic,Yu Gothic_MSFontService,sans-serif" font-weight="400" font-size="64" transform="matrix(1 0 0 1 2311.25 643)">のグラフ</text></g><g clip-path="url(#clip24)"><path d="M2078 1457 2166 1457" stroke="#4472C4" stroke-width="10.3125" stroke-linecap="round" stroke-linejoin="round" stroke-miterlimit="10" fill="none" fill-rule="evenodd"/></g><g clip-path="url(#clip25)"><text fill="#595959" font-family="Yu Gothic,Yu Gothic_MSFontService,sans-serif" font-weight="400" font-size="41" transform="matrix(1 0 0 1 2175.14 1469)">最低</text></g><g clip-path="url(#clip26)"><path d="M2296 1457 2384 1457" stroke="#ED7D31" stroke-width="10.3125" stroke-linecap="round" stroke-linejoin="round" stroke-miterlimit="10" fill="none" fill-rule="evenodd"/></g><g clip-path="url(#clip27)"><text fill="#595959" font-family="Yu Gothic,Yu Gothic_MSFontService,sans-serif" font-weight="400" font-size="41" transform="matrix(1 0 0 1 2393.3 1469)">最高</text></g><rect x="1444.5" y="533.5" width="1650" height="990" stroke="#D9D9D9" stroke-width="3.4375" stroke-linejoin="round" stroke-miterlimit="10" fill="none"/></g></svg>